<svg width="304" height="222" xmlns="http://www.w3.org/2000/svg" xmlns:xlink="http://www.w3.org/1999/xlink" overflow="hidden"><defs><clipPath id="clip0"><rect x="0" y="0" width="304" height="222"/></clipPath><clipPath id="clip1"><rect x="15" y="115" width="274" height="74"/></clipPath><clipPath id="clip2"><rect x="15" y="115" width="274" height="74"/></clipPath><clipPath id="clip3"><rect x="15" y="115" width="274" height="74"/></clipPath></defs><g clip-path="url(#clip0)"><rect x="0" y="0" width="304" height="221.575" fill="#FFFFFF"/><text font-family="Arial,Arial_MSFontService,sans-serif" font-weight="700" font-size="37" transform="matrix(1 0 0 1.0026 23.6958 66)">Action2Motion<tspan font-size="37" x="106.883" y="43.8858">on</tspan></text><g clip-path="url(#clip1)"><g clip-path="url(#clip2)"><g clip-path="url(#clip3)"><path d="M698.591-958.871C698.896-964.305 701.556-969.092 705.57-972.485 709.507-975.818 714.805-977.855 720.586-977.855 726.362-977.855 731.66-975.818 735.6-972.485 739.611-969.092 742.271-964.305 742.579-958.877 742.883-953.294 740.639-948.108 736.703-944.263 732.689-940.353 726.98-937.899 720.586-937.899 714.193-937.899 708.472-940.353 704.461-944.263 700.522-948.108 698.284-953.294 698.591-958.871Z" fill="#FFFFFF" transform="matrix(1 0 0 1.00196 -648.171 1116.1)"/><path d="M358.451-492.003C358.608-494.791 359.973-497.247 362.032-498.988 364.052-500.698 366.771-501.743 369.737-501.743 372.701-501.743 375.419-500.698 377.441-498.988 379.499-497.247 380.864-494.791 381.022-492.006 381.178-489.141 380.027-486.48 378.007-484.507 375.947-482.501 373.018-481.242 369.737-481.242 366.457-481.242 363.522-482.501 361.463-484.507 359.442-486.48 358.294-489.141 358.451-492.003Z" fill="#265787" transform="matrix(1 0 0 1.00196 -297.321 648.802)"/><path d="M340.479-486.369C340.499-485.278 340.846-483.158 341.368-481.502 342.465-477.998 344.326-474.756 346.915-471.899 349.572-468.962 352.843-466.603 356.622-464.928 360.594-463.169 364.897-462.273 369.367-462.28 373.83-462.286 378.134-463.2 382.105-464.972 385.884-466.663 389.153-469.033 391.805-471.971 394.392-474.84 396.25-478.088 397.35-481.592 397.903-483.363 398.252-485.16 398.392-486.963 398.529-488.74 398.472-490.519 398.22-492.297 397.727-495.762 396.529-499.013 394.683-501.976 392.995-504.699 390.819-507.083 388.231-509.09L388.237-509.094 362.125-529.144C362.102-529.161 362.083-529.181 362.058-529.197 360.344-530.512 357.464-530.507 355.579-529.189 353.675-527.857 353.456-525.652 355.152-524.262L355.144-524.255 366.035-515.399 332.841-515.363 332.797-515.363C330.053-515.36 327.415-513.56 326.894-511.285 326.357-508.968 328.22-507.045 331.073-507.035L331.069-507.024 347.894-507.057 317.871-484.012C317.832-483.984 317.791-483.954 317.756-483.926 314.924-481.758 314.008-478.151 315.792-475.869 317.602-473.549 321.452-473.544 324.313-475.856L340.699-489.266C340.699-489.266 340.46-487.456 340.479-486.369ZM382.584-480.307C379.208-476.867 374.482-474.917 369.367-474.906 364.245-474.898 359.519-476.83 356.143-480.264 354.493-481.937 353.281-483.863 352.533-485.914 351.801-487.929 351.516-490.068 351.705-492.227 351.883-494.336 352.511-496.349 353.514-498.17 354.499-499.96 355.855-501.577 357.53-502.945 360.812-505.619 364.99-507.067 369.36-507.073 373.734-507.079 377.909-505.644 381.194-502.979 382.866-501.617 384.221-500.005 385.206-498.218 386.213-496.399 386.836-494.394 387.022-492.278 387.208-490.123 386.923-487.987 386.191-485.97 385.442-483.913 384.234-481.988 382.584-480.307Z" fill="#EA7600" transform="matrix(1 0 0 1.00196 -297.321 648.802)"/><path d="M537.341-492.048C537.593-494.861 539.768-496.645 543.089-496.645 546.415-496.645 548.589-494.861 548.841-492.048L537.341-492.048ZM548.5-485.103C547.649-483.018 545.644-481.784 542.921-481.784 539.511-481.784 537.216-483.913 537.123-487.276L556.727-487.276 556.727-488.265C556.727-496.689 551.782-501.424 542.921-501.424 534.317-501.424 529.114-496.645 529.114-489.151 529.114-481.612 534.398-476.841 542.921-476.841 548.036-476.841 552.002-478.594 554.446-481.675L548.5-485.103Z" fill="#265787" transform="matrix(1 0 0 1.00196 -297.321 648.802)"/><path d="M450.357-492.035C450.617-494.848 452.792-496.632 456.116-496.632 459.436-496.632 461.609-494.848 461.865-492.035L450.357-492.035ZM461.524-485.09C460.672-482.999 458.668-481.765 455.939-481.765 452.535-481.765 450.234-483.9 450.144-487.264L469.743-487.264 469.743-488.247C469.743-496.676 464.8-501.412 455.939-501.412 447.331-501.412 442.138-496.632 442.138-489.138 442.138-481.598 447.419-476.827 455.939-476.827 461.052-476.827 465.021-478.574 467.47-481.66L461.524-485.09Z" fill="#265787" transform="matrix(1 0 0 1.00196 -297.321 648.802)"/><path d="M433.313-506.517 440.382-506.517 440.382-477.596 433.313-477.596Z" fill="#265787" transform="matrix(1 0 0 1.00196 -297.321 648.802)"/><path d="M471.502-498.833 478.611-498.833 478.611-497.111C481.128-499.797 484.15-501.155 487.559-501.155 491.485-501.155 494.457-499.797 495.992-497.486 497.273-495.576 497.357-493.272 497.357-490.244L497.357-477.596 490.238-477.596 490.238-488.709C490.238-493.321 489.31-495.45 485.262-495.45 481.171-495.45 478.611-493.013 478.611-488.921L478.611-477.596 471.502-477.596 471.502-498.833Z" fill="#265787" transform="matrix(1 0 0 1.00196 -297.321 648.802)"/><path d="M520.252-488.793C520.252-484.834 517.607-482.238 513.514-482.238 509.419-482.238 506.774-484.746 506.774-488.747 506.774-492.808 509.383-495.314 513.514-495.314 517.607-495.314 520.252-492.763 520.252-488.793ZM520.252-497.87C518.455-499.797 515.854-500.854 512.239-500.854 504.44-500.854 499.115-496.045 499.115-488.837 499.115-481.771 504.403-476.827 512.111-476.827 515.645-476.827 518.24-477.721 520.252-479.724L520.252-477.596 527.366-477.596 527.366-508.351 520.252-506.517 520.252-497.87Z" fill="#265787" transform="matrix(1 0 0 1.00196 -297.321 648.802)"/><path d="M417.154-495.314C421.288-495.314 423.888-492.808 423.888-488.747 423.888-484.746 421.247-482.238 417.154-482.238 413.065-482.238 410.423-484.834 410.423-488.793 410.423-492.763 413.065-495.314 417.154-495.314ZM410.423-506.517 403.306-508.351 403.306-477.596 410.423-477.596 410.423-479.724C412.425-477.721 415.024-476.827 418.561-476.827 426.273-476.827 431.554-481.771 431.554-488.837 431.554-496.045 426.227-500.854 418.433-500.854 414.81-500.854 412.211-499.797 410.423-497.87L410.423-506.517Z" fill="#265787" transform="matrix(1 0 0 1.00196 -297.321 648.802)"/><path d="M558.481-477.596 558.481-498.833 565.595-498.833 565.595-497.521C567.725-500.086 569.979-501.363 572.543-501.363 573.052-501.363 573.692-501.28 574.542-501.196L574.542-495.141C573.857-495.231 573.093-495.231 572.282-495.231 568.147-495.231 565.595-492.504 565.595-487.866L565.595-477.596 558.481-477.596Z" fill="#265787" transform="matrix(1 0 0 1.00196 -297.321 648.802)"/><text fill="#236192" font-family="Open Sans,Open Sans_MSFontService,sans-serif" font-weight="700" font-size="50" transform="matrix(0.150514 0 0 0.150809 280.55 148)">®</text></g></g></g></g></svg>